<svg width="20" height="21" viewBox="0 0 20 21" fill="none" xmlns="http://www.w3.org/2000/svg">
<path d="M10.6937 18.3107C13.2986 17.7885 16.6667 15.9146 16.6667 11.0689C16.6667 6.65924 13.4389 3.72284 11.1179 2.37361C10.6029 2.07422 10 2.46795 10 3.06367V4.5874C10 5.78895 9.49481 7.98216 8.0911 8.8944C7.37443 9.36015 6.60043 8.66306 6.51333 7.8128L6.44181 7.11461C6.35866 6.30293 5.53201 5.8102 4.8833 6.30507C3.71789 7.1941 2.5 8.7509 2.5 11.0689C2.5 16.9948 6.90741 18.4763 9.11111 18.4763C9.23929 18.4763 9.37399 18.4725 9.51422 18.4644C8.42609 18.3714 6.66667 17.6963 6.66667 15.5131C6.66667 13.8053 7.91256 12.65 8.85918 12.0884C9.11378 11.9374 9.41176 12.1335 9.41176 12.4295V12.9205C9.41176 13.2963 9.55709 13.8836 9.90303 14.2857C10.2945 14.7407 10.8691 14.2641 10.9154 13.6657C10.93 13.4769 11.1199 13.3566 11.2834 13.4521C11.8178 13.7645 12.5 14.4317 12.5 15.5131C12.5 17.2198 11.5592 18.0048 10.6937 18.3107Z" stroke="#F5A524" stroke-width="1.5"/>
</svg>
