<svg width="122" height="28" viewBox="0 0 122 28" fill="none" xmlns="http://www.w3.org/2000/svg">
<path d="M3.49316 0.266602L11.3408 15.4834V0.314453H15.1689V27.7334H12.2979L3.63672 10.6025V27.7334H0V0.314453L3.49316 0.266602Z" fill="white"/>
<path d="M29.6967 3.85547H21.9447V24.2881H32.9027V27.7334H18.1166V0.314453H33.2855V8.11426H29.6967V3.85547Z" fill="white"/>
<path d="M44.5881 0.266602L52.4357 15.4834V0.314453H56.2639V27.7334H53.3928L44.7316 10.6025V27.7334H41.0949V0.314453L44.5881 0.266602Z" fill="white"/>
<path d="M74.3805 24.001V27.7334H59.2115V0.314453L74.3805 0.266602V3.71191H62.8482V9.64551H74.3805V13.0908H62.8482V24.001H74.3805Z" fill="white"/>
<path d="M88.5732 0.314453H92.4971V24.2881H100.153V0.314453H103.79V27.7334H77.3281V0.314453H81.1562V24.2881H88.5732V0.314453Z" fill="white"/>
<path d="M110.327 24.1445H118.031V19.5986L106.69 13.043V0.314453H121.859V8.11426H118.27V3.85547H110.518V9.59766L121.763 16.1055V27.6855L106.69 27.7334V19.8857H110.327V24.1445Z" fill="white"/>
</svg>
